<?xml version="1.0" encoding="UTF-8" standalone="no"?>
<svg
   xmlns:dc="http://purl.org/dc/elements/1.1/"
   xmlns:cc="http://creativecommons.org/ns#"
   xmlns:rdf="http://www.w3.org/1999/02/22-rdf-syntax-ns#"
   xmlns:svg="http://www.w3.org/2000/svg"
   xmlns="http://www.w3.org/2000/svg"
   xmlns:sodipodi="http://sodipodi.sourceforge.net/DTD/sodipodi-0.dtd"
   xmlns:inkscape="http://www.inkscape.org/namespaces/inkscape"
   width="585.08325"
   height="481.99985"
   version="1.1"
   id="svg225"
   sodipodi:docname="illustration-working-cut.svg"
   inkscape:version="0.92.5 (2060ec1f9f, 2020-04-08)">
  <metadata
     id="metadata229">
    <rdf:RDF>
      <cc:Work
         rdf:about="">
        <dc:format>image/svg+xml</dc:format>
        <dc:type
           rdf:resource="http://purl.org/dc/dcmitype/StillImage" />
        <dc:title></dc:title>
      </cc:Work>
    </rdf:RDF>
  </metadata>
  <sodipodi:namedview
     pagecolor="#ffffff"
     bordercolor="#666666"
     borderopacity="1"
     objecttolerance="10"
     gridtolerance="10"
     guidetolerance="10"
     inkscape:pageopacity="0"
     inkscape:pageshadow="2"
     inkscape:window-width="1920"
     inkscape:window-height="1001"
     id="namedview227"
     showgrid="false"
     inkscape:zoom="0.97925311"
     inkscape:cx="77.785083"
     inkscape:cy="380.71496"
     inkscape:window-x="-9"
     inkscape:window-y="-9"
     inkscape:window-maximized="1"
     inkscape:current-layer="svg225"
     fit-margin-top="0"
     fit-margin-left="0"
     fit-margin-right="0"
     fit-margin-bottom="0" />
  <defs
     id="defs113">
    <linearGradient
       id="a"
       x1="203"
       x2="214"
       y1="384.5"
       y2="384.5"
       gradientUnits="userSpaceOnUse">
      <stop
         offset="0%"
         stop-color="#183866"
         id="stop2" />
      <stop
         offset="100%"
         stop-color="#1A7FC1"
         id="stop4" />
    </linearGradient>
    <linearGradient
       id="b"
       x1="93.920059"
       x2="96.373413"
       y1="946.46637"
       y2="946.46637"
       gradientTransform="scale(2.4488081,0.40836193)"
       gradientUnits="userSpaceOnUse">
      <stop
         offset="0%"
         id="stop7" />
      <stop
         offset="99%"
         stop-opacity="0"
         id="stop9" />
    </linearGradient>
    <linearGradient
       id="c"
       x1="196.38229"
       x2="217.27704"
       y1="429.56888"
       y2="434.45465"
       gradientTransform="scale(1.4142612,0.70708296)"
       gradientUnits="userSpaceOnUse">
      <stop
         offset="0%"
         id="stop12" />
      <stop
         offset="99%"
         stop-opacity="0"
         id="stop14" />
    </linearGradient>
    <linearGradient
       id="d"
       x1="746.39441"
       x2="745.08954"
       y1="44.66684"
       y2="40.875813"
       gradientTransform="scale(0.30618622,3.2659863)"
       gradientUnits="userSpaceOnUse">
      <stop
         offset="0%"
         id="stop17" />
      <stop
         offset="99%"
         stop-opacity="0"
         id="stop19" />
    </linearGradient>
    <linearGradient
       id="e"
       x1="154.05148"
       x2="105.23705"
       y1="710.61652"
       y2="706.38092"
       gradientTransform="scale(1.940284,0.51538846)"
       gradientUnits="userSpaceOnUse">
      <stop
         offset="0%"
         id="stop22" />
      <stop
         offset="99%"
         stop-opacity="0"
         id="stop24" />
    </linearGradient>
    <linearGradient
       id="f"
       x1="309.22089"
       x2="305.25302"
       y1="56.30188"
       y2="55.049072"
       gradientUnits="userSpaceOnUse">
      <stop
         offset="0%"
         id="stop27" />
      <stop
         offset="99%"
         stop-opacity="0"
         id="stop29" />
    </linearGradient>
    <linearGradient
       id="g"
       x1="184.69679"
       x2="164.41643"
       y1="449.08051"
       y2="451.67661"
       gradientTransform="scale(1.4411471,0.69389168)"
       gradientUnits="userSpaceOnUse">
      <stop
         offset="0%"
         id="stop32" />
      <stop
         offset="99%"
         stop-opacity="0"
         id="stop34" />
    </linearGradient>
    <linearGradient
       id="h"
       x1="341.93723"
       x2="-7.4641442"
       y1="444.32336"
       y2="436.4082"
       gradientTransform="scale(1.4577379,0.68599436)"
       gradientUnits="userSpaceOnUse">
      <stop
         offset="0%"
         id="stop37" />
      <stop
         offset="100%"
         stop-opacity="0"
         id="stop39" />
    </linearGradient>
    <linearGradient
       id="i"
       x1="85.935417"
       x2="192.07645"
       y1="551.00714"
       y2="551.00714"
       gradientTransform="scale(2.4683917,0.40512208)"
       gradientUnits="userSpaceOnUse">
      <stop
         offset="0%"
         stop-color="#183866"
         id="stop42" />
      <stop
         offset="100%"
         stop-color="#1A7FC1"
         id="stop44" />
    </linearGradient>
    <linearGradient
       id="j"
       x1="147.15477"
       x2="160.57562"
       y1="533.80994"
       y2="546.11456"
       gradientTransform="scale(2.0586729,0.48574982)"
       gradientUnits="userSpaceOnUse">
      <stop
         offset="0%"
         id="stop47" />
      <stop
         offset="99%"
         stop-opacity="0"
         id="stop49" />
    </linearGradient>
    <linearGradient
       id="k"
       x1="128.48636"
       x2="175.22316"
       y1="511.76611"
       y2="515.50482"
       gradientTransform="scale(2,0.5)"
       gradientUnits="userSpaceOnUse">
      <stop
         offset="0%"
         id="stop52" />
      <stop
         offset="99%"
         stop-opacity="0"
         id="stop54" />
    </linearGradient>
    <linearGradient
       id="l"
       x1="180.94202"
       x2="179.24818"
       y1="373.45123"
       y2="379.95499"
       gradientTransform="scale(1.4141991,0.70711403)"
       gradientUnits="userSpaceOnUse">
      <stop
         offset="0%"
         id="stop57" />
      <stop
         offset="99%"
         stop-opacity="0"
         id="stop59" />
    </linearGradient>
    <linearGradient
       id="m"
       x1="89.751732"
       x2="57.744473"
       y1="455.34641"
       y2="454.70389"
       gradientTransform="scale(1.3867475,0.7211118)"
       gradientUnits="userSpaceOnUse">
      <stop
         offset="0%"
         id="stop62" />
      <stop
         offset="99%"
         stop-opacity="0"
         id="stop64" />
    </linearGradient>
    <linearGradient
       id="n"
       x1="78.267128"
       x2="56.20956"
       y1="616.9046"
       y2="616.63782"
       gradientTransform="scale(1.6811107,0.59484482)"
       gradientUnits="userSpaceOnUse">
      <stop
         offset="0%"
         id="stop67" />
      <stop
         offset="99%"
         stop-opacity="0"
         id="stop69" />
    </linearGradient>
    <linearGradient
       id="o"
       x1="25.368877"
       x2="17.308439"
       y1="917.53009"
       y2="924.88641"
       gradientTransform="scale(2.3273733,0.42966892)"
       gradientUnits="userSpaceOnUse">
      <stop
         offset="0%"
         id="stop72" />
      <stop
         offset="99%"
         stop-opacity="0"
         id="stop74" />
    </linearGradient>
    <linearGradient
       id="p"
       x1="216.19427"
       x2="216.15581"
       y1="21.791805"
       y2="26.295895"
       gradientTransform="scale(0.2293355,4.3604239)"
       gradientUnits="userSpaceOnUse">
      <stop
         offset="0%"
         id="stop77" />
      <stop
         offset="99%"
         stop-opacity="0"
         id="stop79" />
    </linearGradient>
    <linearGradient
       id="q"
       x1="306.17792"
       x2="362.74988"
       y1="88.447922"
       y2="88.447922"
       gradientTransform="scale(0.72501492,1.379282)"
       gradientUnits="userSpaceOnUse">
      <stop
         offset="0%"
         stop-color="#ECC4D7"
         id="stop82" />
      <stop
         offset="42%"
         stop-color="#EFD4D1"
         id="stop84" />
      <stop
         offset="100%"
         stop-color="#F2EAC9"
         id="stop86" />
    </linearGradient>
    <linearGradient
       id="r"
       x1="184.88503"
       x2="211.03812"
       y1="326.34863"
       y2="326.34863"
       gradientTransform="scale(1.4529696,0.68824567)"
       gradientUnits="userSpaceOnUse">
      <stop
         offset="0%"
         stop-color="#ECC4D7"
         id="stop89" />
      <stop
         offset="42%"
         stop-color="#EFD4D1"
         id="stop91" />
      <stop
         offset="100%"
         stop-color="#F2EAC9"
         id="stop93" />
    </linearGradient>
    <linearGradient
       id="s"
       x1="203.8325"
       x2="222.80592"
       y1="369.75891"
       y2="369.75891"
       gradientTransform="scale(1.5811599,0.63244709)"
       gradientUnits="userSpaceOnUse">
      <stop
         offset="0%"
         stop-color="#ECC4D7"
         id="stop96" />
      <stop
         offset="42%"
         stop-color="#EFD4D1"
         id="stop98" />
      <stop
         offset="100%"
         stop-color="#F2EAC9"
         id="stop100" />
    </linearGradient>
    <linearGradient
       id="t"
       x1="454.05362"
       x2="311.82404"
       y1="253.44366"
       y2="324.99261"
       gradientTransform="scale(1.1497946,0.86972053)"
       gradientUnits="userSpaceOnUse">
      <stop
         offset="0%"
         stop-color="#362958"
         stop-opacity=".501"
         id="stop103" />
      <stop
         offset="100%"
         stop-color="#34313D"
         stop-opacity="0"
         id="stop105" />
    </linearGradient>
    <linearGradient
       id="u"
       x1="301.89914"
       x2="300.73383"
       y1="46.891567"
       y2="46.460457"
       gradientTransform="scale(0.9999725,1.0000275)"
       gradientUnits="userSpaceOnUse">
      <stop
         offset="0%"
         id="stop108" />
      <stop
         offset="99%"
         stop-opacity="0"
         id="stop110" />
    </linearGradient>
    <clipPath
       clipPathUnits="userSpaceOnUse"
       id="clipPath1047">
      <rect
         style="fill:#800000;fill-opacity:0;stroke:#000000;stroke-opacity:1"
         id="rect1049"
         width="585.08325"
         height="482.0672"
         x="0.05663133"
         y="-0.067259304" />
    </clipPath>
  </defs>
  <g
     id="g223"
     clip-path="url(#clipPath1047)"
     style="fill:none;fill-rule:nonzero"
     transform="translate(-0.05663133,4.4579661e-5)">
    <path
       d="M 583.08,92.214 C 562.107,69.829 545.872,43.107 520.805,24.839 481.431,-3.915 424.764,-6.719 378.725,11.345 c -46.04,18.063 -81.905,54.474 -105.544,95.703 -12.435,21.692 -22.202,45.354 -40.423,63.08 -15.403,14.976 -35.648,24.531 -54.843,34.938 -30.948,16.733 -60.752,36.952 -80.78,64.695 -20.026,27.743 -28.98,64.18 -16.178,95.446 8.633,21.097 26.022,37.883 43.836,53.081 20.964,17.869 43.496,34.601 69.5,45.248 32.555,13.246 68.694,16.094 104.134,17.442 62.828,2.38 125.757,0.601 188.319,-5.323 51.23,-4.844 104.011,-13.113 146.874,-39.88 60.043,-37.484 91,-106.163 97.97,-173.51 2.836,-26.936 2.118,-54.928 -8.964,-79.92 -26.504,-59.78 -98.017,-45.798 -139.547,-90.131 z"
       id="path115"
       inkscape:connector-curvature="0"
       style="fill:#eff1f7" />
    <path
       d="m 178.317,202.334 c 0,0 -16.6,-2.947 -21.25,8.669 -4.65,11.616 0,51.733 0,51.733 L 219,307 Z"
       id="path117"
       inkscape:connector-curvature="0"
       style="fill:#3f3d56" />
    <path
       d="m 256.202,379.727 -24.555,7.008 c -3.568,1.01 -7.31,-0.952 -8.372,-4.386 -1.047,-3.438 0.987,-7.046 4.55,-8.069 l 24.522,-7.014 c 3.565,-1.01 7.307,0.947 8.372,4.379 1.058,3.433 -0.96,7.045 -4.517,8.082 z"
       id="path119"
       inkscape:connector-curvature="0"
       style="fill:#2bd0d0" />
    <circle
       cx="255"
       cy="395"
       r="11"
       id="circle121"
       style="fill:#25233a" />
    <circle
       cx="253.5"
       cy="397.5"
       r="5.5"
       id="circle123"
       style="fill:#3f3d56" />
    <circle
       cx="210"
       cy="384"
       r="11"
       id="circle125"
       style="fill:#25233a" />
    <path
       d="m 214,384.5 a 5.5,5.5 0 1 1 -11,0 5.5,5.5 0 0 1 11,0 z"
       id="path127"
       inkscape:connector-curvature="0"
       style="fill:url(#a)" />
    <circle
       cx="207"
       cy="399"
       r="11"
       id="circle129"
       style="fill:#25233a" />
    <path
       d="m 216,399.5 a 5.5,5.5 0 1 1 -11,0 5.5,5.5 0 0 1 11,0 z"
       id="path131"
       inkscape:connector-curvature="0"
       style="fill:#3f3d56" />
    <path
       d="m 257.085,390.874 -50.787,-10.046 c -3.574,-0.717 -5.884,-4.13 -5.168,-7.636 0.732,-3.5 4.21,-5.764 7.785,-5.066 l 50.787,10.027 c 3.574,0.717 5.884,4.13 5.168,7.637 -0.723,3.507 -4.204,5.781 -7.785,5.084 z"
       id="path133"
       inkscape:connector-curvature="0"
       style="fill:#2bd0d0" />
    <path
       d="m 226,310 h 14 v 59 c 0,3.866 -3.133,7 -6.997,7 a 6.999,6.999 0 0 1 -6.996,-7 v -59 z"
       id="path135"
       inkscape:connector-curvature="0"
       style="fill:#2bd0d0" />
    <path
       d="m 231.187,386.708 -24.537,7.025 c -3.568,1.014 -7.314,-0.949 -8.375,-4.388 -1.047,-3.44 0.987,-7.05 4.548,-8.074 l 24.537,-7.005 c 3.564,-1.01 7.304,0.948 8.368,4.381 1.039,3.435 -0.99,7.034 -4.541,8.06 z"
       id="path137"
       inkscape:connector-curvature="0"
       style="fill:#2bd0d0" />
    <path
       d="m 236,386.26 -3.125,0.551 A 12.89,12.89 0 0 1 230,386.983 l 1.305,-0.228 A 10.302,10.302 0 0 0 233.812,386 Z"
       id="path139"
       inkscape:connector-curvature="0"
       style="fill:url(#b)" />
    <path
       d="M 261,372.738 A 6.914,6.914 0 0 1 259.54,377 L 239,372.65 a 7.113,7.113 0 0 0 1.098,-2.462 l 12.654,-3.923 a 6.201,6.201 0 0 1 4.913,0.579 c 1.5,0.867 2.609,2.324 3.083,4.048 0.164,0.6 0.249,1.222 0.252,1.846 z"
       id="path141"
       inkscape:connector-curvature="0"
       style="fill:url(#c)" />
    <path
       d="M 225.22,371.103 A 5.776,5.776 0 0 1 225,369.523 V 311 h 5.943 v 63.07 c -0.059,0.31 -0.04,0.627 0.057,0.93 a 9.278,9.278 0 0 0 -2.845,-0.511 c -0.69,-0.04 -1.385,-0.04 -2.076,0 l 0.425,-0.1 c 0.262,-0.04 -0.94,-2.091 -1.283,-3.286 z"
       id="path143"
       inkscape:connector-curvature="0"
       style="opacity:0.31000001;fill:url(#d)" />
    <path
       d="m 262.289,389.8 c -0.97,0.523 -2.061,0.797 -3.17,0.796 a 7.063,7.063 0 0 1 -1.33,-0.13 l -22.407,-4.406 -1.867,-0.363 a 6.54,6.54 0 0 1 -2.133,1.055 l -1.11,0.317 -23.025,6.666 c -3.514,1.007 -7.202,-0.943 -8.247,-4.362 1.997,1.805 5.029,1.973 7.223,0.401 2.811,-1.896 14.002,-4.743 20.341,-6.257 2.996,-0.698 5.288,-3.05 5.848,-6 0.016,-0.173 0.042,-0.346 0.08,-0.517 1.056,1.113 2.997,2.362 6.505,3.423 8.64,2.589 22.667,4.304 22.667,4.304 0,0 2.532,2.42 0.625,5.073 z"
       id="path145"
       inkscape:connector-curvature="0"
       style="opacity:0.31000001;fill:url(#e)" />
    <path
       d="m 264,388 a 7.624,7.624 0 0 1 -2,2 119.75,119.75 0 0 0 2,-2 z"
       id="path147"
       inkscape:connector-curvature="0"
       style="fill:url(#f)" />
    <path
       d="m 226.3,370.559 a 6.82,6.82 0 0 0 1.7,3.13 c -0.21,0.039 -0.425,0.092 -0.641,0.151 L 206.088,380 c -3.271,-0.813 -5.426,-3.865 -5.044,-7.146 0.381,-3.28 3.181,-5.781 6.556,-5.854 a 7.14,7.14 0 0 1 1.35,0.132 z"
       id="path149"
       inkscape:connector-curvature="0"
       style="fill:url(#g)" />
    <path
       d="m 259,89.407 c 0,0 -0.276,-20.805 -17.075,-19.01 -16.8,1.793 -15.511,-5.095 -22.687,-4.339 -7.175,0.757 -15.51,7.786 -13.117,16.468 2.395,8.682 -6.332,10.623 -12.064,17.21 -5.733,6.587 1.349,11.976 11.006,18.416 9.657,6.44 -0.6,4.773 5.125,14.955 5.726,10.181 25.107,-2.825 25.107,-2.825 z"
       id="path151"
       inkscape:connector-curvature="0"
       style="fill:#503164" />
    <path
       d="m 122.664,434.601 11.73,0.399 v -93.745 c 0,0 0.59,-24.241 23.452,-26.673 22.861,-2.431 230.196,-32.466 230.196,-32.466 0,0 8.218,-0.87 12.951,14.901 4.733,15.771 9.34,77.787 9.34,77.787 l 63.64,8.577 c 0,0 1.68,-109.55 -21.302,-115.595 -22.981,-6.045 -323.522,24.76 -323.522,24.76 0,0 -22.29,116.352 -6.485,142.055 z"
       id="path153"
       inkscape:connector-curvature="0"
       style="fill:#2bd0d0" />
    <path
       d="m 122.664,434.601 11.73,0.399 v -93.745 c 0,0 0.59,-24.241 23.452,-26.673 22.861,-2.431 230.196,-32.466 230.196,-32.466 0,0 8.218,-0.87 12.951,14.901 4.733,15.771 9.34,77.787 9.34,77.787 l 63.64,8.577 c 0,0 1.68,-109.55 -21.302,-115.595 -22.981,-6.045 -323.522,24.76 -323.522,24.76 0,0 -22.29,116.352 -6.485,142.055 z"
       id="path155"
       inkscape:connector-curvature="0"
       style="opacity:0.197;fill:url(#h)" />
    <path
       d="m 62,303.784 c 0,0 5.744,-31.756 46.144,-40.079 l 285.183,-32.643 c 0,0 27.996,-1.16 40.804,6.587 12.808,7.746 31.088,14.168 38.583,49.223 7.495,35.056 9.286,94.942 9.286,94.942 l -7.09,1.1 c 0,0 -10.348,-108.44 -21.312,-115.306 -10.963,-6.865 -307.402,35.255 -307.402,35.255 0,0 -20.561,4.088 -22.352,34.532 -1.79,30.443 0,96.605 0,96.605 L 62,409.057 Z"
       id="path157"
       inkscape:connector-curvature="0"
       style="fill:#2bd0d0" />
    <path
       d="m 355.425,243.844 c -14.762,-1.9 -29.644,-3.276 -44.519,-2.72 -11.18,0.433 -22.286,1.966 -33.372,3.493 l -97.775,13.503 c -1.66,0.23 -3.55,0.603 -4.38,2.044 -1.592,2.752 2.15,5.464 5.182,6.512 32.51,11.256 67.243,22.656 100.708,14.63 15.3,-3.669 29.511,-11.288 45.03,-13.935 15.518,-2.647 31.448,-0.21 46.933,-2.706 14.557,-2.345 28.417,-9.009 43.172,-9.074 4.525,0 9.183,0.577 13.475,-0.839 4.293,-1.415 8.088,-5.739 6.9,-10.05 -13.853,-0.478 -29.404,-3.007 -42.992,-0.262 -13.449,2.712 -24.894,-0.596 -38.362,-0.596 z"
       id="path159"
       inkscape:connector-curvature="0"
       style="opacity:0.18999999;fill:url(#i)" />
    <path
       d="m 267,259.38 0.57,2.114 c 0,0 16.881,10.173 16.775,10.501 -0.106,0.328 70.024,-16.24 70.024,-16.24 L 356,251 Z"
       id="path161"
       inkscape:connector-curvature="0"
       style="fill:#2bd0d0" />
    <path
       d="m 267,259.38 0.57,2.114 c 0,0 16.881,10.173 16.775,10.501 -0.106,0.328 70.024,-16.24 70.024,-16.24 L 356,251 Z"
       id="path163"
       inkscape:connector-curvature="0"
       style="fill:url(#j)" />
    <path
       d="M 268,259.364 330.107,246 356,251.054 285.442,268 Z"
       id="path165"
       inkscape:connector-curvature="0"
       style="fill:#2bd0d0" />
    <path
       d="M 268,259.364 330.107,246 356,251.054 285.442,268 Z"
       id="path167"
       inkscape:connector-curvature="0"
       style="fill:url(#k)" />
    <path
       d="m 247.832,270.484 14.457,0.512 c 0,0 3.672,0.228 4.62,-2.717 0.95,-2.945 -5.89,-9.16 -6.622,-9.277 -0.733,-0.118 -19.76,5.22 -17.017,10.556 z"
       id="path169"
       inkscape:connector-curvature="0"
       style="fill:#2bd0d0" />
    <path
       d="m 247.832,270.484 14.457,0.512 c 0,0 3.672,0.228 4.62,-2.717 0.95,-2.945 -5.89,-9.16 -6.622,-9.277 -0.733,-0.118 -19.76,5.22 -17.017,10.556 z"
       id="path171"
       inkscape:connector-curvature="0"
       style="fill:url(#l)" />
    <path
       d="m 79,416.056 -7.058,21.677 c -20.473,7.351 -37.88,0 -37.88,0 L 29,415 c 0,0 25.535,8.56 50,1.056 z"
       id="path173"
       inkscape:connector-curvature="0"
       style="fill:#2bd0d0" />
    <path
       d="m 79,416.056 -7.058,21.677 c -20.473,7.351 -37.88,0 -37.88,0 L 29,415 c 0,0 25.535,8.56 50,1.056 z"
       id="path175"
       inkscape:connector-curvature="0"
       style="fill:url(#m)" />
    <path
       d="m 87,396 -2.284,16.943 -5.786,3.008 c -24.648,7.42 -50.415,-1.038 -50.415,-1.038 L 24.072,411.63 22,396 Z"
       id="path177"
       inkscape:connector-curvature="0"
       style="fill:#2bd0d0" />
    <path
       d="m 87,396 -2.284,16.943 -5.786,3.008 c -24.648,7.42 -50.415,-1.038 -50.415,-1.038 L 24.072,411.63 22,396 Z"
       id="path179"
       inkscape:connector-curvature="0"
       style="fill:url(#n)" />
    <ellipse
       cx="54.5"
       cy="395"
       rx="32.5"
       ry="6"
       id="ellipse181"
       style="fill:#2bd0d0" />
    <ellipse
       cx="54.5"
       cy="395"
       rx="32.5"
       ry="6"
       id="ellipse183"
       style="fill:url(#o)" />
    <path
       d="m 39.641,265.03 c -3.182,-1.515 -6.603,-2.658 -9.356,-4.87 -5.547,-4.5 -6.953,-12.248 -8.69,-19.198 -1.736,-6.951 -5.097,-14.593 -11.944,-16.587 -2.562,-0.737 -5.567,-0.445 -7.515,1.39 -2.053,1.933 -2.47,5.11 -1.908,7.914 0.561,2.804 1.928,5.316 2.985,7.974 a 36.878,36.878 0 0 1 2.172,19.477 c -0.865,5.389 -2.932,10.851 -1.605,16.134 2.252,8.964 13.47,14.22 13.78,23.457 0.212,6.233 -4.885,12.001 -3.73,18.135 0.852,4.538 5.005,8.08 5.23,12.692 0.25,5.23 -4.662,9.655 -4.424,14.885 0.237,5.23 5.427,8.725 8.815,12.839 a 21.453,21.453 0 0 1 4.827,12.193 c 0.178,2.791 -0.179,5.682 0.726,8.327 0.66,1.933 1.98,3.575 3.004,5.316 1.13,1.88 1.981,3.914 3.341,5.655 a 13.696,13.696 0 0 0 14.725,4.651 c 1.05,-6.95 0.132,-14.04 0.423,-21.065 0.574,-13.609 5.691,-27.324 2.416,-40.535 -1.201,-4.844 -3.512,-9.443 -3.922,-14.413 -0.363,-4.44 0.812,-8.838 1.631,-13.217 1.69,-9.044 1.664,-18.394 0.97,-27.538 -0.547,-7.256 -5.618,-10.599 -11.95,-13.616 z"
       id="path185"
       inkscape:connector-curvature="0"
       style="fill:#2bd0d0" />
    <path
       d="m 59.752,300.767 c -0.053,6.062 1.33,12.33 -0.612,18.085 -1.47,4.362 -4.702,7.934 -6.371,12.223 -3.85,9.899 1.33,21 0.273,31.57 -0.44,4.354 -1.936,8.537 -2.88,12.813 a 51.236,51.236 0 0 0 -0.851,16.485 4.17,4.17 0 0 0 3.325,4.342 51.942,51.942 0 0 0 10.075,2.715 26.638,26.638 0 0 1 3.445,-18.59 c 5.274,-8.63 15.522,-14.446 17.43,-24.359 1.29,-6.712 -1.715,-13.524 -1.502,-20.355 a 21.886,21.886 0 0 1 4.482,-12.548 c 2.48,-3.227 5.839,-5.723 8.147,-9.07 5.546,-8.066 3.817,-18.848 2.168,-28.494 -1.65,-9.647 -2.607,-20.748 3.91,-28.057 2.062,-2.31 4.748,-4.044 6.617,-6.513 4.163,-5.504 3.112,-13.983 -1.73,-18.902 -4.84,-4.92 -12.635,-6.28 -19.218,-4.116 a 13.86,13.86 0 0 0 -7.01,4.76 c -3.325,4.714 -1.995,11.154 -0.585,16.757 1.23,4.867 2.221,10.483 0.539,15.39 -1.257,3.651 -4.443,5.63 -7.15,8.172 a 38.903,38.903 0 0 0 -12.502,27.692 z"
       id="path187"
       inkscape:connector-curvature="0"
       style="fill:#2bd0d0" />
    <path
       d="m 53.062,354.522 c -0.938,6.593 -2.292,13.239 -2.57,19.851 v 0.665 a 1.757,1.757 0 0 1 -0.111,0.479 51.684,51.684 0 0 0 -0.866,16.501 c 0.036,0.893 0.261,1.768 0.66,2.566 -0.032,0.279 -0.072,0.551 -0.111,0.83 a 13.702,13.702 0 0 1 -14.73,-4.652 c -1.32,-1.741 -2.213,-3.775 -3.342,-5.655 -1.057,-1.748 -2.345,-3.39 -3.005,-5.317 -0.905,-2.659 -0.549,-5.536 -0.727,-8.327 a 21.453,21.453 0 0 0 -4.828,-12.196 c -3.389,-4.087 -8.587,-7.516 -8.818,-12.833 -0.231,-5.317 4.676,-9.656 4.425,-14.887 -0.224,-4.612 -4.379,-8.154 -5.23,-12.693 -1.157,-6.135 3.962,-11.903 3.731,-18.137 -0.31,-9.238 -11.532,-14.495 -13.785,-23.46 -1.32,-5.284 0.74,-10.747 1.605,-16.136 a 36.876,36.876 0 0 0 -2.146,-19.46 c -1.057,-2.658 -2.424,-5.163 -2.986,-7.975 -0.561,-2.81 -0.145,-5.981 1.909,-7.922 1.982,-1.834 4.954,-2.126 7.517,-1.389 6.856,1.994 10.204,9.664 11.948,16.615 1.744,6.952 3.144,14.694 8.692,19.2 2.742,2.227 6.176,3.356 9.36,4.872 6.34,3.017 11.413,6.36 11.955,13.55 0.66,9.145 0.72,18.496 -0.97,27.541 -0.82,4.38 -1.982,8.78 -1.632,13.219 0.35,4.44 2.272,8.64 3.527,12.946 0.139,0.485 0.277,0.977 0.396,1.469 1.665,6.839 1.13,13.757 0.132,20.735 z"
       id="path189"
       inkscape:connector-curvature="0"
       style="fill:#30c59b" />
    <path
       d="m 49.718,394 a 7.789,7.789 0 0 1 -0.502,-2.488 c -0.43,-5.36 -0.216,-10.78 0.637,-16.047 0.023,-0.155 0.052,-0.31 0.08,-0.465 -0.171,6.346 0.374,12.744 -0.215,19 z"
       id="path191"
       inkscape:connector-curvature="0"
       style="fill:url(#p)" />
    <path
       d="m 107.393,251.014 c -1.871,2.47 -4.562,4.202 -6.627,6.513 -6.527,7.303 -5.568,18.41 -3.916,28.057 1.651,9.646 3.383,20.428 -2.172,28.495 -2.31,3.32 -5.674,5.842 -8.159,9.069 a 21.865,21.865 0 0 0 -4.49,12.548 c -0.212,6.831 2.798,13.643 1.506,20.355 -1.911,9.913 -12.175,15.742 -17.457,24.36 A 26.644,26.644 0 0 0 62.654,399 51.824,51.824 0 0 1 52.59,396.285 5.425,5.425 0 0 1 50.246,394.87 2.503,2.503 0 0 1 49.999,394.525 6.232,6.232 0 0 1 49.3,391.975 c -0.599,-5.506 -0.3,-11.073 0.886,-16.484 0.033,-0.16 0.073,-0.319 0.113,-0.478 0.946,-4.11 2.345,-8.14 2.771,-12.336 a 39.84,39.84 0 0 0 -0.16,-8.166 c 1.006,-6.971 1.545,-13.882 -0.153,-20.668 -0.12,-0.49 -0.26,-0.982 -0.4,-1.467 0.127,-0.425 0.273,-0.85 0.44,-1.268 1.672,-4.289 4.909,-7.86 6.38,-12.223 1.939,-5.756 0.56,-12.023 0.613,-18.085 0.087,-10.47 4.823,-20.58 12.429,-27.725 2.71,-2.542 5.901,-4.52 7.16,-8.172 1.685,-4.907 0.666,-10.523 -0.54,-15.39 -1.418,-5.603 -2.764,-12.043 0.587,-16.757 1.665,-2.337 4.29,-3.857 7.02,-4.76 6.567,-2.165 14.407,-0.804 19.249,4.116 4.842,4.92 5.868,13.43 1.698,18.902 z"
       id="path193"
       inkscape:connector-curvature="0"
       style="fill:#30c59b" />
    <path
       d="m 225.573,146.146 c 0,0 -27.817,4.3 -40.684,34.977 -12.867,30.677 -6.176,68.683 -5.951,72.027 0.225,3.344 39.428,17.85 50.635,17.85 11.208,0 13.542,-11.229 13.542,-11.229 l -19.803,-8.433 60.17,-6.949 h 10.804 l -5.951,10.032 c 0,0 11.743,1.23 19.592,1.511 7.848,0.281 13.178,-15.24 14.057,-22.959 0.88,-7.717 -34.667,-75.458 -39.977,-79.47 -5.31,-4.013 -19.717,-13.817 -56.434,-7.357 z"
       id="path195"
       inkscape:connector-curvature="0"
       style="fill:#2bd0d0" />
    <path
       d="m 258.392,88.776 c 0,0 5.032,2.83 4.58,11.985 -0.453,9.155 -3.29,22.932 -6.153,26.5 -2.864,3.57 -12.88,4.968 -12.88,4.968 0,0 5.464,12.977 9.53,16.326 4.066,3.349 -4.086,15.687 -12.015,11.639 -7.928,-4.049 -17.12,-14.216 -17.12,-14.216 0,0 6.612,-12.245 4.376,-18.69 -2.235,-6.445 -10.772,-29.064 -4.376,-35.242 6.396,-6.18 20.186,-15.035 34.058,-3.27 z"
       id="path197"
       inkscape:connector-curvature="0"
       style="fill:url(#q)" />
    <path
       d="M 214.334,190 210,244.055 223.238,251 234,249.122 220.572,232.618 Z M 284,187 c 0,0 17.909,42.077 9.97,57 l -6.116,-1.16 z"
       id="path199"
       inkscape:connector-curvature="0"
       style="opacity:0.25;fill:#ffffff" />
    <path
       d="m 235.522,258.045 c 0,0 -6.766,5.775 -3.746,10.267 3.02,4.491 6.625,4.363 9.631,2.355 3.006,-2.009 8.911,-6.776 15.946,-4.588 7.035,2.188 8.744,3.58 8.744,3.58 0,0 3.705,-2.316 2.744,-4.639 -0.962,-2.323 -8.32,-9.85 -10.452,-10.825 -2.132,-0.975 -10.983,2.021 -10.983,2.021 0,0 -6.503,-1.758 -11.884,1.83 z"
       id="path201"
       inkscape:connector-curvature="0"
       style="fill:url(#r)" />
    <path
       d="m 295.191,245.598 c 0,0 -6.385,0.759 -7.998,4.957 -1.613,4.198 -2.193,4.71 -2.193,4.71 0,0 3.606,0.69 5.106,-1.264 1.5,-1.954 3.059,-1.133 3.059,-1.133 l -0.447,2.507 c 0,0 9.798,1.477 14.224,-0.11 4.425,-1.589 6.325,-3.453 6.325,-3.453 l 1.733,-4.24 c 0,0 -4.18,-3.03 -7.332,-3.5 -3.152,-0.47 -12.477,1.526 -12.477,1.526 z"
       id="path203"
       inkscape:connector-curvature="0"
       style="fill:url(#s)" />
    <path
       d="m 328.893,290 c 0,0 21.934,16.687 19.984,39.259 -1.949,22.572 -4.813,56.087 -4.813,56.087 0,0 -8.846,3.722 -14.707,0 -5.862,-3.722 -9.411,-54.65 -12.315,-59.513 -2.904,-4.864 -20.375,-26.79 -39.042,-28.679 z"
       id="path205"
       inkscape:connector-curvature="0"
       style="fill:#25233a" />
    <path
       d="m 219,306.058 c 0,0 10.444,9.895 29.062,13.002 18.619,3.107 27.297,5.7 32.987,21.605 5.69,15.905 11.148,50.137 12.935,53.963 1.786,3.826 9.382,1.874 9.382,1.874 0,0 4.296,-4.895 4.296,-32.114 0,-37.946 2.655,-45.724 -6.913,-55.256 C 291.181,299.599 282.477,297 282.477,297 Z"
       id="path207"
       inkscape:connector-curvature="0"
       style="fill:#3f3d56" />
    <path
       d="m 294,396 1.82,14.197 h 3.408 c 0,0 21.948,1.187 22.636,0.675 0.688,-0.513 -1.057,-11.243 -9.372,-10.94 -8.316,0.304 -8.861,-2.023 -8.861,-2.023 z m 37,-9.844 3.518,13.844 38.437,-5.212 c 0,0 1.353,-9.093 -10.823,-8.191 -3.214,0.234 -5.608,2.465 -9.471,2.485 -3.863,0.02 -7.563,-1.543 -9.511,-4.082 z"
       id="path209"
       inkscape:connector-curvature="0"
       style="fill:#25233a" />
    <path
       d="m 461.804,212.337 -142.243,7.654 c -3.44,0.181 -6.376,-2.47 -6.561,-5.926 V 112.473 c 0.003,-4.101 3.267,-7.448 7.348,-7.535 l 141.661,-2.937 a 6.835,6.835 0 0 1 4.886,1.917 6.898,6.898 0 0 1 2.105,4.827 v 95.971 c -0.005,4.056 -3.164,7.402 -7.196,7.621 z"
       id="path211"
       inkscape:connector-curvature="0"
       style="fill:#2bd0d0" />
    <path
       d="m 469.804,212.337 -142.25,7.655 c -3.44,0.177 -6.372,-2.478 -6.554,-5.934 V 112.473 c -0.004,-4.102 3.26,-7.452 7.342,-7.535 l 141.68,-2.937 c 3.777,-0.07 6.898,2.943 6.978,6.738 v 95.977 c -0.005,4.057 -3.164,7.403 -7.196,7.621 z"
       id="path213"
       inkscape:connector-curvature="0"
       style="fill:#2bd0d0" />
    <path
       d="m 469.804,212.337 -142.25,7.655 c -3.44,0.177 -6.372,-2.478 -6.554,-5.934 V 112.473 c -0.004,-4.102 3.26,-7.452 7.342,-7.535 l 141.68,-2.937 c 3.777,-0.07 6.898,2.943 6.978,6.738 v 95.977 c -0.005,4.057 -3.164,7.403 -7.196,7.621 z"
       id="path215"
       inkscape:connector-curvature="0"
       style="fill:url(#t)" />
    <path
       d="M 427.773,251.138 391.478,255 c 0,0 -11.053,-2.23 -10.455,-3.862 0.599,-1.633 12.156,-3.205 12.156,-3.205 v -65.804 c -0.1,-0.146 -1.621,-2.084 -5.789,-3.319 -0.807,-0.239 -1.628,-0.43 -2.459,-0.57 a 7.252,7.252 0 0 1 -2.06,-0.624 c -2.479,-1.28 0.26,-3.51 4.107,-3.61 a 9.625,9.625 0 0 1 1.802,0.106 h 27.913 c 0,0 10.568,2.973 11.08,17.811 0.511,14.839 0,59.215 0,59.215 z"
       id="path217"
       inkscape:connector-curvature="0"
       style="fill:#3a3054" />
    <path
       d="M 398,251.277 391.322,255 c 0,0 -10.888,-2.23 -10.299,-3.863 0.59,-1.632 11.995,-3.205 11.995,-3.205 v -65.809 c -0.138,-0.152 -1.807,-1.898 -5.703,-3.318 a 28.64,28.64 0 0 0 -4.452,-1.195 c -2.442,-1.28 0.255,-3.51 4.046,-3.61 3.228,0.445 9.585,4.028 9.998,6.073 0.412,2.044 1.093,71.204 1.093,71.204 z"
       id="path219"
       inkscape:connector-curvature="0"
       style="fill:#51466b" />
    <path
       d="m 263,389 c -0.881,1.001 -1.29,1.37 -0.77,0.547 0.27,-0.159 0.527,-0.342 0.77,-0.547 z"
       id="path221"
       inkscape:connector-curvature="0"
       style="fill:url(#u)" />
  </g>
  <rect
     style="fill:#000000;fill-opacity:0"
     id="rect231"
     width="600.401"
     height="482.0672"
     x="-4.0070533e-10"
     y="-0.06721472" />
  <rect
     style="fill:#000000;fill-opacity:0"
     id="rect233"
     width="585.08319"
     height="482.06723"
     x="-4.0070533e-10"
     y="-0.06721472" />
  <rect
     style="fill:#000000;fill-opacity:0"
     id="rect238"
     width="52.080509"
     height="3.0635593"
     x="478.87979"
     y="187.89835" />
</svg>
